# Blender v2.82 (sub 7) OBJ File: ''
# www.blender.org
mtllib boxes.mtl
o 6_Куб.003
v 0.510753 -0.002706 -0.287119
v 0.510753 0.411411 -0.287119
v 0.514931 0.411411 0.345064
v 0.514931 -0.002706 0.345064
v 0.013955 0.411411 0.348375
v 0.013955 -0.002706 0.348375
v 0.009777 0.411411 -0.283809
v 0.009777 -0.002706 -0.283809
v -0.019984 -0.002706 -0.211105
v -0.019984 0.411411 -0.211105
v -0.015807 0.411411 0.421079
v -0.015807 -0.002706 0.421079
v -0.516782 0.411411 0.424389
v -0.516782 -0.002706 0.424389
v -0.520960 0.411411 -0.207794
v -0.520960 -0.002706 -0.207794
v 0.350412 0.411411 -0.237261
v 0.350412 0.825527 -0.237261
v 0.418489 0.825527 0.391260
v 0.418489 0.411411 0.391260
v -0.079585 0.825527 0.445209
v -0.079585 0.411411 0.445209
v -0.147661 0.825527 -0.183312
v -0.147661 0.411411 -0.183312
vt 0.375000 0.000000
vt 0.625000 0.000000
vt 0.625000 0.250000
vt 0.375000 0.250000
vt 0.625000 0.500000
vt 0.375000 0.500000
vt 0.625000 0.750000
vt 0.375000 0.750000
vt 0.625000 1.000000
vt 0.375000 1.000000
vt 0.125000 0.500000
vt 0.125000 0.750000
vt 0.875000 0.500000
vt 0.875000 0.750000
vt 0.375000 0.000000
vt 0.625000 0.000000
vt 0.625000 0.250000
vt 0.375000 0.250000
vt 0.625000 0.500000
vt 0.375000 0.500000
vt 0.625000 0.750000
vt 0.375000 0.750000
vt 0.625000 1.000000
vt 0.375000 1.000000
vt 0.125000 0.500000
vt 0.125000 0.750000
vt 0.875000 0.500000
vt 0.875000 0.750000
vt 0.375000 0.000000
vt 0.625000 0.000000
vt 0.625000 0.250000
vt 0.375000 0.250000
vt 0.625000 0.500000
vt 0.375000 0.500000
vt 0.625000 0.750000
vt 0.375000 0.750000
vt 0.625000 1.000000
vt 0.375000 1.000000
vt 0.125000 0.500000
vt 0.125000 0.750000
vt 0.875000 0.500000
vt 0.875000 0.750000
vn 1.0000 0.0000 -0.0066
vn 0.0066 0.0000 1.0000
vn -1.0000 0.0000 0.0066
vn -0.0066 0.0000 -1.0000
vn -0.0000 -1.0000 -0.0000
vn 0.0000 1.0000 0.0000
vn 0.9942 0.0000 -0.1077
vn 0.1077 0.0000 0.9942
vn -0.9942 0.0000 0.1077
vn -0.1077 0.0000 -0.9942
usemtl None.003
s off
f 1/1/1 2/2/1 3/3/1 4/4/1
f 4/4/2 3/3/2 5/5/2 6/6/2
f 6/6/3 5/5/3 7/7/3 8/8/3
f 8/8/4 7/7/4 2/9/4 1/10/4
f 4/11/5 6/6/5 8/8/5 1/12/5
f 5/5/6 3/13/6 2/14/6 7/7/6
f 9/15/1 10/16/1 11/17/1 12/18/1
f 12/18/2 11/17/2 13/19/2 14/20/2
f 14/20/3 13/19/3 15/21/3 16/22/3
f 16/22/4 15/21/4 10/23/4 9/24/4
f 12/25/5 14/20/5 16/22/5 9/26/5
f 13/19/6 11/27/6 10/28/6 15/21/6
f 17/29/7 18/30/7 19/31/7 20/32/7
f 20/32/8 19/31/8 21/33/8 22/34/8
f 22/34/9 21/33/9 23/35/9 24/36/9
f 24/36/10 23/35/10 18/37/10 17/38/10
f 20/39/5 22/34/5 24/36/5 17/40/5
f 21/33/6 19/41/6 18/42/6 23/35/6
